<svg version="1.1"
	xmlns="http://www.w3.org/2000/svg" viewBox="0 0 500 500" fill="currentColor" width="1em" height="1em">
	<path d="M316.7,250l100.1-100.1c12.3-12.3,12.3-32.2,0-44.5l-22.2-22.2c-12.3-12.3-32.2-12.3-44.5,0L250,183.3L149.9,83.2
	c-12.3-12.3-32.2-12.3-44.5,0l-22.2,22.2c-12.3,12.3-12.3,32.2,0,44.5L183.3,250L83.2,350.1c-12.3,12.3-12.3,32.2,0,44.5l22.2,22.2
	c12.3,12.3,32.2,12.3,44.5,0L250,316.7l100.1,100.1c12.3,12.3,32.2,12.3,44.5,0l22.2-22.2c12.3-12.3,12.3-32.2,0-44.5L316.7,250z"/>
</svg>
