<svg version="1.1"
	xmlns="http://www.w3.org/2000/svg" viewBox="0 0 500 500" fill="currentColor" width="1em" height="1em">
	<g>
		<path d="M327.3,190.8c0,7.3,2.9,14.6,8.3,19.8c5.3,5.3,12.4,8.3,19.8,8.3h70.2c10.1,0,19.4-5.4,24.4-14c5-8.6,5-19.5,0-28.1
		c-5-8.6-14.3-14-24.4-14h-70.2c-7.3,0-14.6,2.9-19.8,8.3C330.3,176.3,327.3,183.4,327.3,190.8L327.3,190.8z"/>
		<path d="M397.5,50.4h-70.2c-10.1,0-19.4,5.4-24.4,14c-5,8.6-5,19.5,0,28.1c5,8.6,14.3,14,24.4,14h70.2c10.1,0,19.4-5.4,24.4-14
		s5-19.5,0-28.1S407.6,50.4,397.5,50.4z"/>
		<path d="M446.8,275.1h-83.3c-18.8,0-36.3,9.5-46.8,25l-95.7,143.6h-5c-11.6,0-22.5-5.7-29.3-15.1c-6.8-9.4-8.6-21.6-5-32.5
		l25.4-76.5c1.3-3.8,0.6-7.9-1.8-11.2c-2.3-3.2-6.2-5.1-10.1-5.1h-65.5c-14.7,0.3-28.7-6.3-38.1-17.7c-5.3-6.6-8.6-14.3-9.8-22.6
		c-1.3-8.3-0.3-16.6,2.7-24.5l47.6-118.8c1.6-3.9,4.2-7.2,7.6-9.5c3.5-2.3,7.5-3.6,11.6-3.6h61.8l0,0c7.1,0.3,14.2-2.3,19.7-7
		c5.4-4.7,8.9-11.3,9.9-18.4c0.7-7.9-1.9-15.8-7.1-21.7c-5.4-6-12.9-9.2-20.9-9.2h-63.3c-15.5,0-30.5,4.7-43.2,13.3
		C95.7,72.4,85.8,84.7,80,99L32.4,217.8c-12.8,32.1-8.8,68.5,10.9,97.1c19.7,28.6,52.1,45.2,86.8,44.7h4.7l-5.7,17.1
		c-5.1,14.9-6.7,30.6-4.2,46.2c3.6,21.6,14.9,41.3,31.5,55.4s37.9,21.8,59.8,21.7h20c9.5,0,18.2-4.7,23.3-12.5l104.1-156h82.1
		c7.1,0.1,14-2.3,19.6-7c5.5-4.7,8.9-11.2,9.8-18.4c0.7-7.9-1.9-15.8-7.1-21.7C462.4,278.5,454.8,275.1,446.8,275.1L446.8,275.1z"/>
	</g>
</svg>
