<svg version="1.1"
	xmlns="http://www.w3.org/2000/svg" viewBox="0 0 500 500" fill="currentColor" width="1em" height="1em">
	<path d="M252,51.6c109.4,0,198.4,89,198.4,198.4c0,109.4-89,198.4-198.4,198.4c-109.4,0-198.4-89-198.4-198.4
	C53.6,140.6,142.6,51.6,252,51.6 M252,10C119.5,10,12,117.4,12,250c0,132.5,107.5,240,240,240s240-107.5,240-240
	C492,117.4,384.5,10,252,10 M204.6,199.6c0,17.6-14.3,31.9-31.9,31.9s-31.9-14.3-31.9-31.9s14.3-31.9,31.9-31.9
	S204.6,182,204.6,199.6 M331.3,168c-17.6,0-31.9,14.3-31.9,31.9c0,17.6,14.3,31.9,31.9,31.9c17.6,0,31.9-14.3,31.9-31.9
	C363.2,182.3,348.9,168,331.3,168 M359.1,344.1c0-11.5-9.3-20.8-20.8-20.8l-172.5,0c-11.5,0-20.8,9.3-20.8,20.8
	c0,11.5,9.3,20.8,20.8,20.8h172.5C349.8,364.9,359.1,355.6,359.1,344.1"/>
</svg>
