<svg version="1.1"
	xmlns="http://www.w3.org/2000/svg" viewBox="0 0 500 500" fill="currentColor" width="1em" height="1em">
	<path d="M250,51.6c109.4,0,198.4,89,198.4,198.4s-89,198.4-198.4,198.4c-109.4,0-198.4-89-198.4-198.4
	C51.6,140.6,140.6,51.6,250,51.6 M250,10C117.4,10,10,117.5,10,250s107.4,240,240,240c132.5,0,240-107.5,240-240S382.6,10,250,10
	 M202.6,199.6c0,17.6-14.3,31.9-31.9,31.9s-31.9-14.3-31.9-31.9s14.3-31.9,31.9-31.9C188.3,167.7,202.6,182,202.6,199.6 M329.3,168
	c-17.6,0-31.9,14.3-31.9,31.9s14.3,31.9,31.9,31.9c17.6,0,31.9-14.3,31.9-31.9C361.2,182.3,346.9,168,329.3,168 M350.5,345.8
	c8.4-7.9,8.8-21,0.9-29.4c-7.9-8.4-21-8.8-29.4-0.9c-19.6,18.5-45.2,28.6-72,28.6c-26.9,0-52.4-10.1-72-28.6
	c-8.4-7.9-21.5-7.5-29.4,0.9c-7.9,8.4-7.5,21.5,0.9,29.4c27.3,25.7,63,39.9,100.5,39.9C287.5,385.7,323.2,371.5,350.5,345.8"/>
</svg>
