<svg version="1.1"
	xmlns="http://www.w3.org/2000/svg" viewBox="0 0 500 500" fill="currentColor" width="1em" height="1em">
	<path d="M364.5,91.5c6,0,12.3,0.9,18.6,2.7c9.6,2.8,19.8,9.3,27.8,17.9c9.6,10.3,15.7,22.8,18,37.1c4.5,28-5.8,62.5-29.9,99.7
	c-16.2,25-38.5,51.2-66.4,77.8c-23.6,22.5-51.3,45.5-82.7,68.5c-31.4-23.1-59.2-46-82.7-68.5c-27.8-26.6-50.2-52.7-66.4-77.8
	c-24.1-37.2-34.4-71.7-29.8-99.7c2.3-14.3,8.4-26.8,18-37.1c8-8.6,18.2-15.1,27.9-17.9l0,0l0,0c6.4-1.8,12.5-2.7,18.6-2.7
	c36.2,0,63,33.7,65.5,36.9l47.7,71l50.2-71.2C299.3,127.8,327.2,91.5,364.5,91.5 M364.5,31.5C293.8,31.5,250,93.6,250,93.6
	s-43.7-62.1-114.4-62.1c-11.1,0-22.8,1.5-35.1,5C9.5,62.4-98.7,231.3,250,468.6C598.7,231.3,490.4,62.4,399.6,36.5
	C387.3,33,375.6,31.5,364.5,31.5L364.5,31.5z"/>
</svg>
