<svg version="1.1"
	xmlns="http://www.w3.org/2000/svg" viewBox="0 0 500 500" fill="currentColor" width="1em" height="1em">
	<g>
		<path d="M172.7,309.1c0-7.4-3-14.6-8.3-19.9s-12.4-8.3-19.9-8.3H74.4c-10.1,0-19.3,5.4-24.4,14.1c-5.1,8.7-5,19.5,0,28.1
		s14.3,14.1,24.4,14.1h70.2c7.4,0,14.6-3,19.9-8.3S172.7,316.5,172.7,309.1L172.7,309.1z"/>
		<path d="M102.5,449.5h70.2c10.1,0,19.3-5.4,24.4-14.1c5-8.6,5-19.5,0-28.1s-14.3-14.1-24.4-14.1h-70.2c-10.1,0-19.3,5.4-24.4,14.1
		c-5,8.6-5,19.5,0,28.1C83.2,444.1,92.5,449.5,102.5,449.5z"/>
		<path d="M53.2,224.9h83.3c18.8,0,36.4-9.4,46.8-24.9l95.7-143.6h5c11.6,0,22.5,5.7,29.2,15.1s8.6,21.6,5,32.5l-25.4,76.5
		c-1.3,3.7-0.6,7.9,1.8,11.2c2.3,3.2,6.2,5.2,10.1,5.2h65.6c14.7-0.3,28.8,6.3,37.9,17.7c5.3,6.6,8.6,14.3,9.8,22.6
		c1.3,8.3,0.3,16.7-2.7,24.5l-47.6,118.7c-1.5,3.9-4.3,7.2-7.6,9.5c-3.5,2.3-7.5,3.6-11.6,3.6h-61.8l0,0c-7.1-0.3-14.2,2.2-19.7,7
		c-5.4,4.6-8.9,11.2-9.9,18.4c-0.8,7.9,1.9,15.8,7.1,21.7c5.4,5.9,12.9,9.2,20.9,9.2h63.3c15.5,0,30.5-4.6,43.2-13.3
		c12.8-8.6,22.7-20.9,28.5-35.2l47.6-118.8c12.8-32.1,8.8-68.5-11-97c-19.7-28.5-52.1-45.3-86.8-44.6h-4.6l5.7-17
		c5.2-14.8,6.7-30.6,4.3-46.2c-3.6-21.6-14.8-41.3-31.5-55.5s-37.9-22.1-60-22h-20c-9.4,0-18.2,4.6-23.3,12.5l-104,156H54.5
		c-7.1-0.1-14.1,2.3-19.6,7c-5.5,4.7-8.9,11.2-9.8,18.3c-0.8,7.9,1.9,15.8,7.1,21.7C37.8,221.4,45.2,224.9,53.2,224.9L53.2,224.9z" />
	</g>
</svg>
