<svg version="1.1"
    xmlns="http://www.w3.org/2000/svg" viewBox="0 0 10 10" fill="currentColor" width="1em" height="1em">
    <path d="M2.8,9C2.1,9,1.6,8.5,1.6,7.8c0-0.5,0.6-1.5,1.2-2.4C3.4,6.2,4,7.2,4,7.8C4,8.5,3.5,9,2.8,9 M5,0C2.2,0,0,2.2,0,5
	c0,0.9,0.2,1.7,0.6,2.4C0.7,7,0.9,6.5,1.2,6.1C1.1,5.7,1,5.4,1,5c0-2.2,1.8-4,4-4s4,1.8,4,4S7.2,9,5,9C4.9,9,4.8,9,4.6,9
	c-0.2,0.4-0.6,0.7-1,0.8C4.1,9.9,4.5,10,5,10c2.8,0,5-2.2,5-5S7.8,0,5,0 M5,6C4.8,6,4.6,6,4.4,6.1C4.6,6.4,4.7,6.7,4.8,7H5
	c0.6,0,1.2,0.2,1.4,0.6l0.7-0.7C6.6,6.4,5.9,6,5,6 M6.8,3C6.3,3,6,3.3,6,3.8s0.3,0.8,0.8,0.8c0.4,0,0.8-0.3,0.8-0.8S7.1,3,6.8,3
	 M4,3.8C4,3.3,3.7,3,3.2,3S2.5,3.3,2.5,3.8s0.3,0.8,0.8,0.8S4,4.2,4,3.8"/>
</svg>
