<svg version="1.1"
    xmlns="http://www.w3.org/2000/svg" viewBox="0 0 20 20" fill="currentColor" width="1em" height="1em">
    <path d="M10,15.5c2.3,0,4.3-1.5,5.1-3.5H4.9C5.7,14,7.7,15.5,10,15.5z"/>
    <path d="M10,0C4.5,0,0,4.5,0,10s4.5,10,10,10c5.5,0,10-4.5,10-10C20,4.5,15.5,0,10,0z M10,18c-4.4,0-8-3.6-8-8s3.6-8,8-8s8,3.6,8,8
		S14.4,18,10,18z"/>
    <path d="M9,6L9,6C8.6,5.6,8,5.6,7.6,6l0,0c-0.4,0.4-1,0.4-1.4,0l0,0c-0.4-0.4-1-0.4-1.4,0l0,0c-0.4,0.4-0.4,1,0,1.4l1.4,1.4
		c0.4,0.4,1,0.4,1.4,0L9,7.4C9.4,7,9.4,6.4,9,6z"/>
    <path d="M15.3,6L15.3,6c-0.4-0.4-1-0.4-1.4,0l0,0c-0.4,0.4-1,0.4-1.4,0l0,0c-0.4-0.4-1-0.4-1.4,0l0,0c-0.4,0.4-0.4,1,0,1.4l1.4,1.4
		c0.4,0.4,1,0.4,1.4,0l1.4-1.4C15.7,7,15.7,6.4,15.3,6z"/>
</svg>
