<svg version="1.1"
	xmlns="http://www.w3.org/2000/svg" viewBox="0 0 500 500" fill="currentColor" width="1em" height="1em">
	<path d="M250,51.7c109.4,0,198.4,89,198.4,198.4c0,109.4-89,198.3-198.4,198.3S51.6,359.4,51.6,250C51.6,140.6,140.6,51.6,250,51.7
	 M250,10C117.4,10,10,117.5,10,250c0,132.5,107.4,240,240,240c132.5,0,240-107.5,240-240C490,117.5,382.5,10,250,10 M202.6,199.6
	c0,17.6-14.3,31.9-31.9,31.9s-31.9-14.3-31.9-31.9s14.3-31.9,31.9-31.9C188.3,167.7,202.6,182,202.6,199.6 M329.3,168
	c-17.6,0-31.9,14.3-31.9,31.9c0,17.6,14.3,31.9,31.9,31.9c17.6,0,31.9-14.3,31.9-31.9C361.2,182.3,346.9,168,329.3,168 M178,380.1
	c19.6-18.4,45.1-28.6,72-28.6c26.9,0,52.4,10.2,72,28.6c8.4,7.9,21.5,7.4,29.4-0.9c7.9-8.4,7.5-21.6-0.9-29.4
	c-27.3-25.7-63-39.9-100.5-39.9c-37.5,0-73.2,14.2-100.5,39.9c-8.4,7.9-8.8,21-0.9,29.4c4.1,4.3,9.6,6.5,15.2,6.5
	C168.9,385.7,174,383.8,178,380.1"/>
</svg>
