<svg version="1.1"
	xmlns="http://www.w3.org/2000/svg" viewBox="0 0 20 20" fill="currentColor" width="1em" height="1em">
	<path d="M18,10c0-4.4-3.6-8-8-8s-8,3.6-8,8s3.6,8,8,8S18,14.4,18,10 M20,10c0,5.5-4.5,10-10,10S0,15.5,0,10S4.5,0,10,0S20,4.5,20,10
	 M13.5,6C14.3,6,15,6.7,15,7.5S14.3,9,13.5,9S12,8.3,12,7.5S12.7,6,13.5,6 M8,7.5C8,8.3,7.3,9,6.5,9S5,8.3,5,7.5S5.7,6,6.5,6
	S8,6.7,8,7.5 M10,12c1.8,0,3.3,0.7,4.2,1.8l-1.4,1.4C12.3,14.5,11.2,14,10,14s-2.3,0.5-2.8,1.2l-1.4-1.4C6.7,12.7,8.2,12,10,12z"/>
</svg>
