<svg version="1.1"
	xmlns="http://www.w3.org/2000/svg" viewBox="0 0 500 500" fill="currentColor" width="1em" height="1em">
	<path d="M250,122.6l28.2,73.1L288,221l27.1,1.5l78.2,4.2l-60.8,49.4l-21.1,17.1l7,26.3l20.1,75.7l-65.8-42.5L250,337.9l-22.8,14.7
	l-65.8,42.5l20.1-75.7l7-26.3l-21.1-17.1l-60.8-49.4l78.2-4.2L212,221l9.8-25.4L250,122.6 M250,21.3c-3.6,0-6.8,2.2-8.1,5.5
	l-59.3,153.6l-164.4,8.9c-3.6,0.2-6.7,2.6-7.8,6c-1.1,3.4,0,7.1,2.8,9.4L141,308.7L98.7,467.8c-0.9,3.5,0.4,7.1,3.3,9.2
	c1.5,1.1,3.3,1.7,5.1,1.7c1.6,0,3.3-0.5,4.7-1.4L250,387.9l138.3,89.4c1.4,0.9,3.1,1.4,4.7,1.4c1.8,0,3.6-0.6,5.1-1.7
	c2.9-2.1,4.2-5.8,3.3-9.2L359,308.7l127.8-103.8h0c2.8-2.3,3.9-6,2.8-9.4c-1.1-3.4-4.2-5.8-7.8-6l-164.4-8.9L258.1,26.9
	C256.8,23.5,253.6,21.3,250,21.3L250,21.3z"/>
</svg>
