<svg version="1.1"
	xmlns="http://www.w3.org/2000/svg" viewBox="0 0 500 500" fill="currentColor" width="1em" height="1em">
	<path d="M456.7,185.2c-19.7-28.5-52.1-45.3-86.8-44.6h-4.6l5.7-17c5.2-14.8,6.7-30.6,4.3-46.2c-3.6-21.6-14.8-41.3-31.5-55.5
	c-16.7-14.2-37.9-22.1-60-22h-20c-9.4,0-18.2,4.6-23.3,12.5l-104,156H54.5c-7.1-0.1-14.1,2.3-19.6,7c-5.5,4.7-8.9,11.2-9.8,18.3
	c-0.8,7.9,1.9,15.8,7.1,21.7c5.5,5.9,12.9,9.3,20.9,9.3h9.1l14.2,56h-2.1c-10.1,0-19.3,5.4-24.4,14.1c-5.1,8.7-5,19.5,0,28.1
	c5,8.6,14.3,14.1,24.4,14.1h16.3l14.2,56.1h-2.5c-10.1,0-19.3,5.4-24.4,14.1c-5,8.6-5,19.5,0,28.1c5.1,8.7,14.4,14.1,24.4,14.1h16.7
	l165.6,0.1c0,0,0.1,0,0.1,0h63.3c15.5,0,30.5-4.6,43.2-13.3c12.8-8.6,22.7-20.9,28.5-35.2l47.6-118.8
	C480.4,250.2,476.4,213.8,456.7,185.2z"/>
</svg>
