<svg version="1.1"
	xmlns="http://www.w3.org/2000/svg" viewBox="0 0 500 500" fill="currentColor" width="1em" height="1em">
	<path d="M486.8,204.8L359,308.7l42.3,159.1c0.9,3.5-0.4,7.1-3.3,9.2c-2.9,2.1-6.8,2.2-9.8,0.3L250,387.9l-138.3,89.4
	c-3,1.9-6.9,1.8-9.8-0.3c-2.9-2.1-4.2-5.8-3.3-9.2L141,308.7L13.2,204.8c-2.8-2.3-3.9-6-2.8-9.4c1.1-3.4,4.2-5.8,7.8-6l164.4-8.9
	l59.3-153.6c1.3-3.3,4.5-5.5,8.1-5.5c3.6,0,6.8,2.2,8.1,5.5l59.3,153.6l164.4,8.9c3.6,0.2,6.7,2.6,7.8,6
	C490.7,198.8,489.6,202.5,486.8,204.8L486.8,204.8z"/>
</svg>
